<svg xmlns="http://www.w3.org/2000/svg" viewBox="0 0 120 120"><defs><linearGradient id="g" x1="15" y1="105" x2="105" y2="15" gradientUnits="userSpaceOnUse"><stop stop-color="#1768ff"/><stop offset="1" stop-color="#42dcff"/></linearGradient></defs><g fill="none" stroke="url(#g)" stroke-width="4.5" stroke-linecap="round" stroke-linejoin="round"><path d="M20 46A45 45 0 0 1 99 31M18 55A45 45 0 0 0 30 92"/><path d="M44 91c-10-9-15-22-13-36 3-21 20-36 41-34 18 2 31 16 32 34 0 10-3 18-8 25l6 8-8 6 1 6-9 3c-3 9-11 13-22 10l-14-5c-6-2-11-7-13-13"/><circle cx="40" cy="60" r="12"/><path d="M50 56c5-2 10 0 14 3M76 64c5-2 10-1 13 2"/></g></svg>